<svg
        xmlns="http://www.w3.org/2000/svg"
        xmlSpace="preserve"
        viewBox="224.55 343.86 574.9 80.29"
>
    <path
            fill="#fff"
            d="M388.71 343.86v80.168h19v-26.455h9.459l14.67 26.535h21.805l-18.037-30.543c8.658-2.004 17.557-9.62 17.557-23.811 0-14.911-10.262-25.895-26.936-25.895zm-164.16.121 31.025 80.168h21.404l30.943-80.168h-21.564l-20.041 55.955-20.201-55.955zm95.348 0v16.916h56.756v-16.916zm176.86 0-31.023 80.168h21.564l20.2-57.49 10.104 28.86 10.018 28.62h21.486l-30.95-80.16zm64.322 0v80.166h34.07c6.333 0 12.266-1.443 17.557-4.088 13.308-6.492 22.527-20.202 22.527-36.074.08-15.713-9.14-29.422-22.445-35.996a40.329 40.329 0 0 0-17.559-4.008zm86.188 0v16.916h56.758v-16.916zm68.811 0 31.023 80.168h21.406l30.943-80.168h-21.564l-20.043 55.955-20.201-55.955zm-308.37 16.875h15.953c6.173 0 10.102 3.527 10.102 8.899s-4.009 8.898-10.102 8.898h-15.953zm172.38 1.563h15.07c11.944 0 21.645 9.7 21.645 21.646.08 11.864-9.458 21.485-21.322 21.645h-15.4zm-260.19 13.54v16.914h56.756v-16.91zm327.37 0v16.914h56.76v-16.91zm-152.53 28.469 12.732 19.713 12.623-19.713zm-174.85 2.797v16.914h56.756v-16.914zm327.37 0v16.914h56.758v-16.914z"
    />
</svg>
