<?xml version="1.0" encoding="UTF-8" standalone="no"?>
<svg
   xmlns:dc="http://purl.org/dc/elements/1.1/"
   xmlns:cc="http://creativecommons.org/ns#"
   xmlns:rdf="http://www.w3.org/1999/02/22-rdf-syntax-ns#"
   xmlns:svg="http://www.w3.org/2000/svg"
   xmlns="http://www.w3.org/2000/svg"
   id="svg4"
   xml:space="preserve"
   viewBox="224.55 343.86 574.9 80.29"
   y="0px"
   x="0px"
   version="1.1"><metadata
     id="metadata10"><rdf:RDF><cc:Work
         rdf:about=""><dc:format>image/svg+xml</dc:format><dc:type
           rdf:resource="http://purl.org/dc/dcmitype/StillImage" /></cc:Work></rdf:RDF></metadata><defs
     id="defs8" /><path
     id="path2"
     d="m388.71 343.86v80.168h19v-26.455h9.459l14.67 26.535h21.805l-18.037-30.543c8.6582-2.0043 17.557-9.6205 17.557-23.811 0-14.911-10.262-25.895-26.936-25.895zm-164.16 0.1211 31.025 80.168h21.404l30.943-80.168h-21.564l-20.041 55.955-20.201-55.955zm95.348 0v16.916h56.756v-16.916zm176.86 0-31.023 80.168h21.564l20.2-57.49 10.104 28.859 10.018 28.621h21.486l-30.95-80.16zm64.322 0v80.166h34.07c6.3326 0 12.266-1.4427 17.557-4.0879 13.308-6.4924 22.527-20.202 22.527-36.074 0.0799-15.713-9.1392-29.422-22.445-35.996-5.2921-2.5653-11.306-4.0078-17.559-4.0078zm86.188 0v16.916h56.758v-16.916zm68.811 0 31.023 80.168h21.406l30.943-80.168h-21.564l-20.043 55.955-20.201-55.955zm-308.37 16.875h15.953c6.1728 0 10.102 3.5272 10.102 8.8984s-4.0087 8.8984-10.102 8.8984h-15.953zm172.38 1.5625h15.07c11.944 0 21.645 9.7013 21.645 21.646 0.0799 11.864-9.4578 21.485-21.322 21.645h-15.4zm-260.19 13.54v16.914h56.756v-16.91zm327.37 0v16.914h56.76v-16.91zm-152.53 28.469 12.732 19.713 12.623-19.713zm-174.85 2.7969v16.914h56.756v-16.914zm327.37 0v16.914h56.758v-16.914z"
     fill="#ffffff" /></svg>
